<?xml version="1.0" encoding="UTF-8"?>
<svg id="Layer_1" data-name="Layer 1" xmlns="http://www.w3.org/2000/svg" viewBox="0 0 328.98 66.54">
  <defs>
    <style>
      .cls-1 {
        fill: #90a4ae;
      }
    </style>
  </defs>
  <path class="cls-1" d="M27,57.46v-6.36h-9.92v-1.41h9.92v-2.95h-12.47c-.52.08-.87.4-1.05.95v6.36h9.92v1.41h-9.92v2.95h12.46c.52-.08.87-.4,1.06-.95ZM42.17,55.46h-9.92v-8.73h-3.6v11.68h13.52v-2.95ZM44.89,58.41h12.44v-2.95h-9.92v-5.78h9.92v-2.95h-12.44c-.58.12-.94.48-1.08,1.08v9.53c.13.57.49.93,1.08,1.07ZM0,.37v65.8h65.15V.37H0ZM61.24,62.29H3.91V4.25h57.34v58.05Z"/>
  <path class="cls-1" d="M85.14,11.63h33.48v7.93h-26.65v3.79h26.65v17.09c-.51,1.49-1.46,2.35-2.85,2.56h-33.47v-7.93h26.65v-3.79h-26.65V14.19c.5-1.48,1.44-2.34,2.83-2.56Z"/>
  <path class="cls-1" d="M125.95,11.63h30.56c1.39.28,2.34,1.13,2.85,2.56v26.26c-.51,1.49-1.46,2.35-2.85,2.56h-30.56c-1.6-.39-2.57-1.35-2.91-2.89V14.53c.39-1.6,1.36-2.57,2.91-2.9ZM132.7,19.56v15.51h17.08v-15.51h-17.08Z"/>
  <path class="cls-1" d="M163.76,11.63h9.66v23.45h16.99V11.63h9.66v28.5c-.39,1.59-1.37,2.55-2.93,2.89h-30.48c-1.6-.39-2.57-1.35-2.91-2.89V11.63Z"/>
  <path class="cls-1" d="M204.48,11.63h33.47c1.39.28,2.34,1.13,2.85,2.56v18.66c-.83,2.31-2.92,3.19-6.24,2.64l6.24,7.52h-12.08l-6.33-7.6h-4.08v-7.93h12.91v-7.92h-17.08v23.45h-9.66V11.63Z"/>
  <path class="cls-1" d="M248.11,11.63h33.4v7.93h-26.65v15.51h26.65v7.93h-33.4c-1.6-.39-2.57-1.35-2.91-2.89V14.53c.39-1.6,1.36-2.57,2.91-2.9Z"/>
  <path class="cls-1" d="M285.92,11.63h36.31v7.93h-26.65v3.79h26.65v7.93h-26.65v3.79h26.65v7.93h-36.31V11.63Z"/>
  <g>
    <path class="cls-1" d="M89.75,56.26h-7.53v-7.39h3.34v5.7h4.19v1.69Z"/>
    <path class="cls-1" d="M94.08,56.26h-3.34v-7.39h3.34v7.39Z"/>
    <path class="cls-1" d="M103.72,56.26h-6.07c-1.46,0-2.26-.31-2.26-1.17v-5.01c0-.88.79-1.21,2.27-1.21h4.92v1.69h-3.85v4h1.64v-2.15h3.34v3.84Z"/>
    <path class="cls-1" d="M113.9,56.26h-3.34v-2.89h-2.34v2.89h-3.34v-7.39h3.34v2.82h2.34v-2.82h3.34v7.39Z"/>
    <path class="cls-1" d="M123.72,50.57h-2.77v5.7h-3.34v-5.7h-2.77v-1.69h8.89v1.69Z"/>
    <path class="cls-1" d="M127.99,56.26h-3.34v-7.39h3.34v7.39Z"/>
    <path class="cls-1" d="M138.85,56.26h-2.79l-3.41-3.38v3.38h-3.34v-7.39h2.92l3.28,3.23v-3.23h3.34v7.39Z"/>
    <path class="cls-1" d="M148.49,56.26h-6.07c-1.46,0-2.26-.31-2.26-1.17v-5.01c0-.88.79-1.21,2.27-1.21h4.92v1.69h-3.85v4h1.64v-2.15h3.34v3.84Z"/>
    <path class="cls-1" d="M162.13,55.06c0,.75-.86,1.2-2.3,1.2h-6.28v-7.39h6.3c1.48,0,2.29.33,2.29,1.21v1.5c0,.55-.44.81-1.12.95v.02c.66.06,1.12.31,1.12.87v1.64ZM158.79,51.69v-1.13h-1.9v1.13h1.9ZM158.79,54.57v-1.19h-1.9v1.19h1.9Z"/>
    <path class="cls-1" d="M172.05,52.41c0,.88-.83,1.19-2.3,1.19h-.42v2.66h-3.34v-2.66h-.49c-1.48,0-2.27-.31-2.27-1.19v-3.53h3.34v3.03h2.14v-3.03h3.34v3.53Z"/>
    <path class="cls-1" d="M184.66,56.26h-5.4c-1.48,0-2.22-.31-2.22-1.17v-5.05c0-.85.75-1.17,2.22-1.17h5.4v1.69h-4.28v4h4.28v1.69Z"/>
    <path class="cls-1" d="M194.49,56.26h-3.34v-1.99h-2.14v1.99h-3.34v-6.18c0-.88.81-1.21,2.29-1.21h6.54v7.39ZM191.14,52.6v-2.03h-2.14v2.03h2.14Z"/>
    <path class="cls-1" d="M203.54,55.1c0,.85-.81,1.17-2.27,1.17h-5.47v-1.69h4.4v-1.18h-2.14c-1.83,0-2.26-.51-2.26-1.16v-2.15c0-.88.79-1.21,2.27-1.21h5.14v1.69h-4.07v1.13h2.11c1.56,0,2.29.37,2.29,1.26v2.15Z"/>
    <path class="cls-1" d="M212.98,50.57h-2.77v5.7h-3.34v-5.7h-2.77v-1.69h8.89v1.69Z"/>
  </g>
  <path class="cls-1" d="M328.34,12.18c0,1.44-1.17,2.59-2.65,2.59s-2.67-1.16-2.67-2.59,1.18-2.58,2.67-2.58,2.65,1.16,2.65,2.58ZM323.81,12.2c0,1.08.79,1.93,1.88,1.93s1.88-.85,1.88-1.95-.79-1.94-1.89-1.94-1.86.87-1.86,1.95ZM325.36,13.41h-.74v-2.38c.17-.03.55-.08,1.05-.08.54,0,.78.08.96.18.15.11.25.29.25.53s-.22.45-.55.54v.03c.27.09.42.27.5.61.08.35.12.48.17.57h-.83c-.08-.09-.12-.3-.17-.51-.04-.24-.17-.36-.4-.36h-.24v.87ZM325.39,12.05h.21c.27,0,.45-.1.45-.28,0-.2-.17-.3-.42-.3-.09,0-.18.02-.24.02v.57Z"/>
</svg>