<?xml version="1.0" encoding="UTF-8"?>
<svg id="Layer_1" data-name="Layer 1" xmlns="http://www.w3.org/2000/svg" viewBox="0 0 132.92 135.36">
  <path d="M132.92,135.36H0V0h132.92v135.36ZM7.97,127.39h116.97V7.97H7.97v119.42Z"/>
  <path d="M38.14,95.43c0,9.05-2.69,13.16-8.54,13.16s-8.44-4.1-8.44-13.04v-55.66c0-9.06,2.69-13.28,8.44-13.28s8.54,4.23,8.54,13.16v7.97h-5.38v-8.57c0-5.07-.83-6.88-3.15-6.88s-3.06,1.81-3.06,6.88v56.87c0,5.19.83,7.12,3.06,7.12s3.15-1.93,3.15-7v-10.26h5.38v9.54Z"/>
  <path d="M58.99,80.1h-6.5l2.97-43.23,3.53,43.23ZM59.55,85.77l2.23,22.09h5.29l-7.88-80.41h-7.51l-6.59,80.41h5.01l1.86-22.09h7.6Z"/>
  <path d="M85.1,47.85v-8.69c0-5.07-.83-6.88-3.06-6.88s-3.06,1.81-3.06,6.88v6.64c0,4.34.46,6.52,2.78,11.35l5.75,12.68c3.43,7.49,3.99,9.42,3.99,15.1v10.62c0,8.94-2.87,13.04-9,13.04s-9-4.1-9-13.04v-9.54h5.38v10.14c.09,5.07,1.02,7,3.62,7s3.62-1.93,3.62-7v-11.11c0-4.35-.93-7.24-4.45-14.49l-4.36-9.3c-2.88-5.92-3.8-9.54-3.8-15.45v-6.04c0-8.93,2.79-13.16,8.53-13.16s8.44,4.23,8.44,13.16v8.09h-5.38Z"/>
  <path d="M103.08,107.86V33h-6.31v-5.55h18.09v5.55h-6.31l-.09,74.86h-5.38Z"/>
</svg>