<?xml version="1.0" encoding="UTF-8"?>
<svg id="Layer_1" data-name="Layer 1" xmlns="http://www.w3.org/2000/svg" viewBox="0 0 159.51 134.82">
  <defs>
    <style>
      .cls-1 {
        fill: #014960;
      }
    </style>
  </defs>
  <path class="cls-1" d="M132.92,135.36H0V0h132.92v135.36ZM7.97,127.39h116.97V7.97H7.97v119.42Z"/>
  <path class="cls-1" d="M38.14,95.43c0,9.05-2.69,13.16-8.54,13.16s-8.44-4.1-8.44-13.04v-55.66c0-9.06,2.69-13.28,8.44-13.28s8.54,4.23,8.54,13.16v7.97h-5.38v-8.57c0-5.07-.83-6.88-3.15-6.88s-3.06,1.81-3.06,6.88v56.87c0,5.19.83,7.12,3.06,7.12s3.15-1.93,3.15-7v-10.26h5.38v9.54Z"/>
  <path class="cls-1" d="M58.99,80.1h-6.5l2.97-43.23,3.53,43.23ZM59.55,85.77l2.23,22.09h5.29l-7.88-80.41h-7.51l-6.59,80.41h5.01l1.86-22.09h7.6Z"/>
  <path class="cls-1" d="M85.1,47.85v-8.69c0-5.07-.83-6.88-3.06-6.88s-3.06,1.81-3.06,6.88v6.64c0,4.34.46,6.52,2.78,11.35l5.75,12.68c3.43,7.49,3.99,9.42,3.99,15.1v10.62c0,8.94-2.87,13.04-9,13.04s-9-4.1-9-13.04v-9.54h5.38v10.14c.09,5.07,1.02,7,3.62,7s3.62-1.93,3.62-7v-11.11c0-4.35-.93-7.24-4.45-14.49l-4.36-9.3c-2.88-5.92-3.8-9.54-3.8-15.45v-6.04c0-8.93,2.79-13.16,8.53-13.16s8.44,4.23,8.44,13.16v8.09h-5.38Z"/>
  <path class="cls-1" d="M103.08,107.86V33h-6.31v-5.55h18.09v5.55h-6.31l-.09,74.86h-5.38Z"/>
  <path class="cls-1" d="M137.37.42h20.34v2.37h-18.93v3.97h-1.41V.42Z"/>
  <path class="cls-1" d="M137.37,16.62h20.34v2.37h-20.34v-2.37Z"/>
  <path class="cls-1" d="M147.44,37.73h-9.56c-.52-1.51-.7-2.46-.7-3.8,0-2.7,1.01-4.01,3.17-4.01h14.23c2.26,0,3.33,1.27,3.33,3.89s-1.07,3.97-3.33,3.97h-2.02v-2.37h2.17c1.28-.04,1.74-.45,1.74-1.55s-.46-1.55-1.74-1.55h-14.39c-1.28,0-1.8.53-1.8,1.76,0,.49.09.82.33,1.31h7.12v-1.47h1.43v3.85Z"/>
  <path class="cls-1" d="M137.37,54.26h9.74v-3.15h-9.74v-2.37h20.34v2.37h-9.16v3.15h9.16v2.37h-20.34v-2.37Z"/>
  <path class="cls-1" d="M137.37,69.07h18.93v-2.78h1.41v7.98h-1.41v-2.78l-18.93-.04v-2.37Z"/>
  <path class="cls-1" d="M137.37,83.84h20.34v2.37h-20.34v-2.37Z"/>
  <path class="cls-1" d="M137.37,102.9l16.89-3.48h-16.89v-2.25h20.34v3.4l-16.18,3.35h16.16v2.25h-20.31v-3.27Z"/>
  <path class="cls-1" d="M147.44,124.91h-9.56c-.52-1.51-.7-2.46-.7-3.81,0-2.7,1.01-4.01,3.17-4.01h14.23c2.26,0,3.33,1.27,3.33,3.89s-1.07,3.97-3.33,3.97h-2.02v-2.37h2.17c1.28-.04,1.74-.45,1.74-1.55s-.46-1.56-1.74-1.56h-14.39c-1.28,0-1.8.53-1.8,1.76,0,.49.09.82.33,1.31h7.12v-1.47h1.43v3.85Z"/>
  <path class="cls-1" d="M139.02,134.82v-5.74h.92v5.35h1.55v.4h-2.47Z"/>
  <path class="cls-1" d="M145.33,134.82v-5.74h.92v5.35h1.55v.4h-2.47Z"/>
  <path class="cls-1" d="M154.52,133.93c0,.65-.46.94-1.47.94s-1.45-.29-1.45-.93v-3.97c0-.65.46-.95,1.45-.95s1.47.3,1.47.94v.57h-.92v-.61c0-.36-.14-.49-.54-.49s-.53.13-.53.49v4.06c0,.37.14.51.53.51s.54-.14.54-.5v-.73h.92v.68Z"/>
  <path class="cls-1" d="M158.61,134.82v-.52h.89v.52h-.89Z"/>
  <path class="cls-1" d="M159.04,131.23c-.31,0-.58-.11-.81-.34-.22-.23-.34-.5-.34-.81s.11-.59.34-.82c.23-.23.5-.34.82-.34s.59.11.82.34c.23.23.34.5.34.81s-.11.6-.34.82c-.23.22-.5.34-.83.34ZM159.04,131.06c.32,0,.58-.12.77-.36.16-.19.23-.4.23-.64s-.08-.44-.23-.63c-.19-.24-.44-.36-.76-.36s-.57.12-.76.36c-.16.19-.23.4-.23.63,0,.27.1.5.29.7.19.2.42.29.69.29ZM158.68,130.7v-1.25h.39c.13,0,.22.03.28.08.06.05.09.13.09.23,0,.08-.02.14-.05.2-.04.06-.09.11-.16.16l.38.58h-.23l-.34-.52h-.16v.52h-.2ZM158.87,130.02h.06c.11,0,.19-.02.24-.06.05-.04.08-.1.08-.18,0-.06-.02-.11-.07-.15-.05-.03-.11-.05-.2-.05h-.11v.44Z"/>
</svg>