<?xml version="1.0" encoding="UTF-8"?>
<svg id="Layer_1" data-name="Layer 1" xmlns="http://www.w3.org/2000/svg" viewBox="0 0 425.52 66.54">
  <defs>
    <style>
      .cls-1 {
        fill: #fff;
      }
    </style>
  </defs>
  <g>
    <path class="cls-1" d="M65.34,66.54H0V0h65.34v66.54ZM3.92,62.62h57.51V3.92H3.92v58.71Z"/>
    <path class="cls-1" d="M18.75,46.91c0,4.45-1.32,6.47-4.2,6.47s-4.15-2.02-4.15-6.41v-27.36c0-4.45,1.32-6.53,4.15-6.53s4.2,2.08,4.2,6.47v3.92h-2.65v-4.21c0-2.49-.41-3.38-1.55-3.38s-1.5.89-1.5,3.38v27.96c0,2.55.41,3.5,1.5,3.5s1.55-.95,1.55-3.44v-5.05h2.65v4.69Z"/>
    <path class="cls-1" d="M29,39.38h-3.19l1.46-21.25,1.73,21.25ZM29.27,42.17l1.09,10.86h2.6l-3.87-39.53h-3.69l-3.24,39.53h2.46l.91-10.86h3.74Z"/>
    <path class="cls-1" d="M41.84,23.53v-4.27c0-2.49-.41-3.38-1.5-3.38s-1.5.89-1.5,3.38v3.26c0,2.14.23,3.2,1.37,5.58l2.83,6.23c1.69,3.68,1.96,4.63,1.96,7.42v5.22c0,4.39-1.41,6.41-4.42,6.41s-4.42-2.02-4.42-6.41v-4.69h2.65v4.99c.05,2.49.5,3.44,1.78,3.44s1.78-.95,1.78-3.44v-5.46c0-2.14-.46-3.56-2.19-7.12l-2.14-4.57c-1.41-2.91-1.87-4.69-1.87-7.6v-2.97c0-4.39,1.37-6.47,4.2-6.47s4.15,2.08,4.15,6.47v3.98h-2.65Z"/>
    <path class="cls-1" d="M50.68,53.03V16.23h-3.1v-2.73h8.89v2.73h-3.1l-.05,36.8h-2.65Z"/>
  </g>
  <g>
    <path class="cls-1" d="M117.41,35.72c-.33,0-.43.11-.49.32-2.38,10.6-7.47,16.01-14.55,16.01h-2.43c-.81,0-.92-.11-.92-.92V15.16c0-.81.11-.92.92-.92h3.95c.22,0,.32-.05.32-.49s-.11-.49-.32-.49h-18.93c-.22,0-.32.05-.32.49s.11.49.32.49h3.25c.81,0,.92.11.92.92v35.97c0,.81-.11.92-.92.92h-3.35c-.22,0-.32.05-.32.49s.11.49.32.49h32.13c.76,0,.92-.22.92-.97v-16.01c0-.22-.05-.32-.49-.32Z"/>
    <path class="cls-1" d="M219.78,13.27h-34.21c-.22,0-.32.05-.32.49,0,.32.11.49.32.49,5.73.22,6.33,3.52,6.33,10.49v12.28c0,.43.11,5.57.11,6.71h-.22c-.27-.76-3.14-6.11-3.52-6.87l-12.17-22.88c-.27-.49-.59-.7-1.08-.7h-14.28c-.22,0-.32.05-.32.49s.11.49.32.49h2.87c1.62,0,1.78.16,1.78,1.79v25.53c0,6.92-.59,10.22-5.13,10.48h-2.76s-.66.01-.66.01c-.81,0-.97-.11-1.24-.92l-12.39-37.97c-.11-.32-.22-.43-.54-.43h-5.3c-.27,0-.49.16-.6.43l-8.28,26.72c-3.03,9.85-4.16,11.95-7.79,12.17-.32,0-.43.16-.43.49,0,.43.11.49.32.49h11.63c.22,0,.32-.05.32-.49,0-.32-.11-.49-.32-.49-5.36-.22-5.84-2.33-2.71-11.95l.38-1.08h11.95l3.9,12.12c.27.81.16.92-.65.92h-4.17c-.22,0-.32.05-.32.49s.11.49.27.49h32.41c.22,0,.32-.05.32-.49,0-.32-.11-.49-.32-.49-6.22-.22-6.82-3.52-6.82-10.49v-25.05h.22l19.1,35.86c.22.38.43.65.92.65h5.68c.54,0,.59-.38.59-.81v-27.48c0-4.75.28-7.8,1.93-9.32.68-.58,1.38-.87,2.14-1.02t0,0c.77-.15,1.59-.15,2.5-.15h3.67c.81,0,.92.11.92.92v35.97c0,.81-.11.92-.92.92h-3.35c-.22,0-.32.05-.32.49s.11.49.32.49h19.91c11.79,0,20.34-8.38,20.34-20.07s-9.68-19.69-20.34-19.69ZM130.18,38.04l5.57-18.07h.22c.54,2.16,1.89,6.82,2.6,8.93l2.98,9.14h-11.36ZM226.38,49.02c-1.19,1.84-3.3,3.03-6.6,3.03h-4.81c-.81,0-.92-.11-.92-.92V15.16c0-.81.11-.92.92-.92h4.81c2.76,0,4.98.81,6.49,2.92,2,2.81,2.92,7.14,2.92,15.69s-1.08,13.42-2.81,16.17Z"/>
    <path class="cls-1" d="M259,27.12c-6.38-2.38-8.87-4.65-8.87-8.28,0-3.3,2.43-5.08,5.9-5.08,4.87,0,8.55,4.44,10.33,11.36.05.16.16.32.49.32s.49-.11.49-.32v-11.58c0-.22-.05-.32-.49-.32-.22,0-.33.05-.54.27-.38.38-1.19.97-2.43.97-2.81,0-4.6-1.68-7.84-1.68-6.71,0-11.85,4.92-11.85,11.79,0,6.28,2.43,9.3,11.2,12.77,6.55,2.6,8.22,5.95,8.22,9.03,0,3.89-2.38,6.33-7.25,6.33-6.38,0-11.52-7.14-13.09-14.88-.05-.16-.16-.32-.49-.32s-.49.16-.49.38v14.82c0,.22.05.32.49.32.22,0,.33-.05.54-.27.6-.59,1.57-.97,2.81-.97,2.92,0,5.73,1.89,10.17,1.89,7.57,0,13.79-5.73,13.79-12.66s-3.35-11.04-11.09-13.9Z"/>
    <path class="cls-1" d="M305.14,37.5c-.32,0-.43.16-.49.32-1.57,7.63-7.79,14.77-13.25,14.77-2.11,0-3.73-.65-5.09-2-2.11-2.11-3.3-5.25-3.3-17.36s1.19-15.25,3.3-17.36c1.35-1.35,2.98-2,5.09-2,5.46,0,11.09,6.11,12.66,13.74.05.16.16.32.49.32s.49-.16.49-.32v-14.01c0-.22-.05-.32-.49-.32-.22,0-.32.05-.54.27-.7.65-1.68,1.14-3.03,1.14-3.62,0-5.57-1.89-10.44-1.89-10.01,0-18.39,8.76-18.39,20.45s8.06,20.45,18.39,20.45c5.3,0,7.36-2.06,11.03-2.06,1.35,0,2.33.49,3.03,1.14.22.22.33.27.54.27.43,0,.49-.11.49-.32v-14.88c0-.16-.16-.32-.49-.32Z"/>
    <path class="cls-1" d="M367.52,35.77c10.44,0,14.88-5.03,14.88-11.47,0-6-4.11-11.04-15.63-11.04h-17.58c-.22,0-.32.05-.32.49s.11.49.32.49h3.25c.81,0,.92.11.92.92v35.97c0,.81-.11.92-.92.92h-7.79c-.81,0-.97-.11-1.24-.92l-12.39-37.97c-.11-.32-.22-.43-.54-.43h-5.3c-.27,0-.49.16-.6.43l-8.28,26.72c-3.03,9.85-4.16,11.95-7.79,12.17-.32,0-.43.16-.43.49,0,.43.11.49.32.49h11.63c.22,0,.32-.05.32-.49,0-.32-.11-.49-.32-.49-5.36-.22-5.84-2.33-2.71-11.95l.38-1.08h11.95l3.9,12.12c.27.81.16.92-.65.92h-4.17c-.22,0-.32.05-.32.49s.11.49.27.49h39.44c.22,0,.32-.05.32-.49s-.11-.49-.32-.49h-3.95c-.81,0-.92-.11-.92-.92v-15.85c1.03.27,2.92.49,4.27.49ZM363.24,15.16c0-.81.11-.92.92-.92h1.62c1.84,0,3.19.65,4.06,1.51,1.51,1.51,2.11,3.46,2.11,8.55s-.87,7.41-2.11,8.76c-1.03,1.08-2.33,1.62-3.89,1.62-1.14,0-1.89-.11-2.7-.38V15.16ZM317.96,38.04l5.57-18.07h.22c.54,2.16,1.89,6.82,2.6,8.93l2.98,9.14h-11.36Z"/>
    <path class="cls-1" d="M415.34,37.39c-.27,0-.49.11-.54.38-2.7,10.22-6.98,14.28-15.09,14.28h-2.49c-.81,0-.92-.11-.92-.92v-18.93h2.27c4.33,0,7.14,1.57,8.17,6.98.05.27.22.43.49.43.22,0,.49-.16.49-.43v-14.88c0-.27-.27-.38-.49-.38-.27,0-.43.11-.49.38-1.03,5.41-3.84,6.92-8.17,6.92h-2.27V15.16c0-.81.11-.92.92-.92h3.52c7.47,0,11.2,2.87,13.47,12.17.05.27.27.38.54.38.22,0,.43-.11.43-.38v-12.12c0-.76-.16-1.03-.92-1.03h-32.02c-.22,0-.32.05-.32.49s.11.49.32.49h3.25c.81,0,.92.11.92.92v35.97c0,.81-.11.92-.92.92h-3.35c-.22,0-.32.05-.32.49s.11.49.32.49h32.73c.76,0,.92-.27.92-1.03v-14.23c0-.27-.22-.38-.43-.38Z"/>
  </g>
  <path class="cls-1" d="M423.31,13.82c.46.25.82.6,1.08,1.04s.39.93.39,1.48-.13,1.08-.39,1.54-.62.82-1.08,1.08-.97.39-1.52.39-1.06-.13-1.52-.39-.81-.62-1.07-1.08-.39-.97-.39-1.54.13-1.04.39-1.48.62-.79,1.07-1.04.96-.38,1.52-.38,1.06.13,1.52.38ZM422.89,18.25c.33-.19.59-.45.78-.78.19-.33.29-.71.29-1.13,0-.39-.1-.75-.29-1.07s-.45-.58-.78-.76c-.33-.19-.7-.28-1.1-.28s-.77.09-1.1.28c-.33.19-.59.44-.78.76s-.28.68-.28,1.07c0,.63.21,1.16.62,1.57.41.42.92.62,1.54.62.41,0,.78-.09,1.11-.29ZM422.82,16.34s-.11.07-.34.21c-.05.03-.06.07-.04.12l.28.76s.02.05.02.1-.02.09-.06.13c-.04.04-.09.06-.16.06h-.21c-.16,0-.25-.07-.29-.21l-.23-.75s-.04-.07-.1-.07-.09.03-.09.09v.69c0,.17-.08.25-.25.25h-.18c-.17,0-.25-.08-.25-.25v-2.21c0-.17.08-.25.25-.25h.79c.25,0,.46.08.62.25.16.17.24.37.24.62v.47ZM421.59,15.68v.41c0,.06.03.09.09.09h.18c.09,0,.16-.03.21-.09.05-.06.08-.13.08-.21,0-.09-.03-.16-.08-.21-.05-.05-.13-.08-.21-.08h-.18c-.06,0-.09.03-.09.09Z"/>
</svg>